{"title":"18+ Ragini MMS 2 2014 Hindi Movies DVDRip XViD ESubs +Sample TPB","uid":10286019,"size":742694434,"categoryP":"video","categoryS":"movies","magnet":"?xt=urn:btih:927ed1080dfbd7942204f023803b2831d14f6490&amp;dn=18%2B+Ragini+MMS+2+2014+Hindi+Movies+DVDRip+XViD+ESubs+%2BSample+TPB&amp;tr=udp%3A%2F%2Ftracker.openbittorrent.com%3A80&amp;tr=udp%3A%2F%2Fopen.demonii.com%3A1337&amp;tr=udp%3A%2F%2Ftracker.coppersurfer.tk%3A6969&amp;tr=udp%3A%2F%2Fexodus.desync.com%3A6969","seeders":4,"leechers":1,"uploader":"sarajik9","files":4,"time":1401780151,"description":"18+ Ragini MMS 2 2014 Hindi Movies DVDRip XViD ESubs with Sample ~ TPBfan\n\nPOSTER:\n &lt;a href=&quot;\nhttp://istoreimg.com/upload/big/2014/06/03/538d51aed8a2a.jpg&quot; rel=&quot;nofollow&quot; target=&quot;_NEW&quot;&gt;\nhttp://istoreimg.com/upload/big/2014/06/03/538d51aed8a2a.jpg&lt;/a&gt;\n\nSCREEN SHOTS :\n &lt;a href=&quot;\nhttp://istoreimg.co.nr/2014/6/RaginiMMS2/1.html&quot; rel=&quot;nofollow&quot; target=&quot;_NEW&quot;&gt;\nhttp://istoreimg.co.nr/2014/6/RaginiMMS2/1.html&lt;/a&gt; &lt;a href=&quot;\nhttp://istoreimg.co.nr/2014/6/RaginiMMS2/2.html&quot; rel=&quot;nofollow&quot; target=&quot;_NEW&quot;&gt;\nhttp://istoreimg.co.nr/2014/6/RaginiMMS2/2.html&lt;/a&gt; &lt;a href=&quot;\nhttp://istoreimg.co.nr/2014/6/RaginiMMS2/3.html&quot; rel=&quot;nofollow&quot; target=&quot;_NEW&quot;&gt;\nhttp://istoreimg.co.nr/2014/6/RaginiMMS2/3.html&lt;/a&gt; &lt;a href=&quot;\nhttp://istoreimg.co.nr/2014/6/RaginiMMS2/4.html&quot; rel=&quot;nofollow&quot; target=&quot;_NEW&quot;&gt;\nhttp://istoreimg.co.nr/2014/6/RaginiMMS2/4.html&lt;/a&gt; &lt;a href=&quot;\nhttp://istoreimg.co.nr/2014/6/RaginiMMS2/5.html&quot; rel=&quot;nofollow&quot; target=&quot;_NEW&quot;&gt;\nhttp://istoreimg.co.nr/2014/6/RaginiMMS2/5.html&lt;/a&gt; &lt;a href=&quot;\nhttp://istoreimg.co.nr/2014/6/RaginiMMS2/6.html&quot; rel=&quot;nofollow&quot; target=&quot;_NEW&quot;&gt;\nhttp://istoreimg.co.nr/2014/6/RaginiMMS2/6.html&lt;/a&gt; &lt;a href=&quot;\nhttp://istoreimg.co.nr/2014/6/RaginiMMS2/7.html&quot; rel=&quot;nofollow&quot; target=&quot;_NEW&quot;&gt;\nhttp://istoreimg.co.nr/2014/6/RaginiMMS2/7.html&lt;/a&gt; &lt;a href=&quot;\nhttp://istoreimg.co.nr/2014/6/RaginiMMS2/8.html&quot; rel=&quot;nofollow&quot; target=&quot;_NEW&quot;&gt;\nhttp://istoreimg.co.nr/2014/6/RaginiMMS2/8.html&lt;/a&gt; &lt;a href=&quot;\nhttp://istoreimg.co.nr/2014/6/RaginiMMS2/9.html&quot; rel=&quot;nofollow&quot; target=&quot;_NEW&quot;&gt;\nhttp://istoreimg.co.nr/2014/6/RaginiMMS2/9.html&lt;/a&gt; &lt;a href=&quot;\nhttp://istoreimg.co.nr/2014/6/RaginiMMS2/10.html&quot; rel=&quot;nofollow&quot; target=&quot;_NEW&quot;&gt;\nhttp://istoreimg.co.nr/2014/6/RaginiMMS2/10.html&lt;/a&gt;\n\nFormat                                   : Matroska\nFormat version                           : Version 4 / Version 2\nFile size                                : 691 MiB\nDuration                                 : 1h 59mn\nOverall bit rate                         : 810 Kbps\nMovie name                               : 18+ Ragini MMS 2 2014 Hindi Movies DVDRip XViD ESubs\n\nVideo\nID                                       : 1\nFormat                                   : MPEG-4 Visual\nFormat profile                           : Advanced Simple@L5\nFormat settings, BVOP                    : Yes\nFormat settings, QPel                    : No\nFormat settings, GMC                     : No warppoints\nFormat settings, Matrix                  : Default (H.263)\nCodec ID                                 : V_MS/VFW/FOURCC / XVID\nCodec ID/Hint                            : XviD\nDuration                                 : 1h 59mn\nBit rate                                 : 666 Kbps\nWidth                                    : 640 pixels\nHeight                                   : 272 pixels\nDisplay aspect ratio                     : 2.35:1\nFrame rate mode                          : Constant\nFrame rate                               : 29.970 fps\nColor space                              : YUV\nChroma subsampling                       : 4:2:0\nBit depth                                : 8 bits\nScan type                                : Progressive\nCompression mode                         : Lossy\nBits/(Pixel*Frame)                       : 0.128\nStream size                              : 568 MiB (82%)\nWriting library                          : XviD 65\nDefault                                  : Yes\nForced                                   : No\n\nAudio\nID                                       : 2\nFormat                                   : MPEG Audio\nFormat version                           : Version 1\nFormat profile                           : Layer 3\nMode                                     : Joint stereo\nMode extension                           : MS Stereo\nCodec ID                                 : A_MPEG/L3\nCodec ID/Hint                            : MP3\nDuration                                 : 1h 59mn\nBit rate mode                            : Constant\nBit rate                                 : 128 Kbps\nChannel(s)                               : 2 channels\nSampling rate                            : 48.0 KHz\nCompression mode                         : Lossy\nStream size                              : 109 MiB (16%)\nWriting library                          : LAME3.98r\nEncoding settings                        : -m j -V 4 -q 3 -lowpass 17 -b 128\nDefault                                  : Yes\nForced                                   : No","torrent":{"xt":"urn:btih:927ed1080dfbd7942204f023803b2831d14f6490","amp;dn":"18%2B+Ragini+MMS+2+2014+Hindi+Movies+DVDRip+XViD+ESubs+%2BSample+TPB","amp;tr":["udp%3A%2F%2Ftracker.openbittorrent.com%3A80","udp%3A%2F%2Fopen.demonii.com%3A1337","udp%3A%2F%2Ftracker.coppersurfer.tk%3A6969","udp%3A%2F%2Fexodus.desync.com%3A6969"],"infoHash":"927ed1080dfbd7942204f023803b2831d14f6490","infoHashBuffer":{"type":"Buffer","data":[146,126,209,8,13,251,215,148,34,4,240,35,128,59,40,49,209,79,100,144]},"announce":[],"urlList":[]}}